<mxfile host="Electron" agent="Mozilla/5.0 (X11; Linux x86_64) AppleWebKit/537.36 (KHTML, like Gecko) draw.io/24.7.5 Chrome/126.0.6478.183 Electron/31.3.0 Safari/537.36" version="24.7.5">
  <diagram name="Page-1" id="nAOH3eZicdSQfYtLonMW">
    <mxGraphModel dx="568" dy="360" grid="1" gridSize="10" guides="1" tooltips="1" connect="1" arrows="1" fold="1" page="1" pageScale="1" pageWidth="320" pageHeight="160" math="0" shadow="0">
      <root>
        <mxCell id="0" />
        <mxCell id="1" parent="0" />
        <mxCell id="9BBqrbZMhpgvefR6SsMU-13" value="" style="endArrow=none;html=1;rounded=0;fontFamily=Courier New;fontSize=11;strokeWidth=3;" parent="1" source="D1s_JWRGo4cH3QNwt004-2" target="D1s_JWRGo4cH3QNwt004-4" edge="1">
          <mxGeometry width="50" height="50" relative="1" as="geometry">
            <mxPoint x="88.9442719099992" y="55.5278640450004" as="sourcePoint" />
            <mxPoint x="151.0557280900008" y="24.4721359549996" as="targetPoint" />
          </mxGeometry>
        </mxCell>
        <mxCell id="9BBqrbZMhpgvefR6SsMU-15" value="" style="endArrow=none;html=1;rounded=0;fontFamily=Courier New;fontSize=11;" parent="1" source="D1s_JWRGo4cH3QNwt004-3" target="D1s_JWRGo4cH3QNwt004-4" edge="1">
          <mxGeometry width="50" height="50" relative="1" as="geometry">
            <mxPoint x="231.0557280900008" y="55.5278640450004" as="sourcePoint" />
            <mxPoint x="168.9442719099992" y="24.4721359549996" as="targetPoint" />
          </mxGeometry>
        </mxCell>
        <mxCell id="9BBqrbZMhpgvefR6SsMU-16" value="+2" style="ellipse;whiteSpace=wrap;html=1;aspect=fixed;fontFamily=Courier New;fontSize=11;fillColor=#f8cecc;strokeColor=#b85450;" parent="1" vertex="1">
          <mxGeometry x="30" y="90" width="20" height="20" as="geometry" />
        </mxCell>
        <mxCell id="9BBqrbZMhpgvefR6SsMU-19" value="+1" style="ellipse;whiteSpace=wrap;html=1;aspect=fixed;fontFamily=Courier New;fontSize=11;fillColor=#f8cecc;strokeColor=#b85450;" parent="1" vertex="1">
          <mxGeometry x="110" y="90" width="20" height="20" as="geometry" />
        </mxCell>
        <mxCell id="9BBqrbZMhpgvefR6SsMU-21" value="&amp;nbsp;0" style="ellipse;whiteSpace=wrap;html=1;aspect=fixed;fontFamily=Courier New;fontSize=11;fillColor=#f8cecc;strokeColor=#b85450;" parent="1" vertex="1">
          <mxGeometry x="190" y="90" width="20" height="20" as="geometry" />
        </mxCell>
        <mxCell id="9BBqrbZMhpgvefR6SsMU-23" value="" style="ellipse;whiteSpace=wrap;html=1;aspect=fixed;fontFamily=Courier New;fontSize=11;fillColor=#f8cecc;strokeColor=#b85450;dashed=1;dashPattern=1 1;" parent="1" vertex="1">
          <mxGeometry x="270" y="90" width="20" height="20" as="geometry" />
        </mxCell>
        <mxCell id="9BBqrbZMhpgvefR6SsMU-24" value="0.5" style="endArrow=none;html=1;rounded=0;fontFamily=Courier New;fontSize=11;strokeWidth=3;" parent="1" source="9BBqrbZMhpgvefR6SsMU-16" target="D1s_JWRGo4cH3QNwt004-2" edge="1">
          <mxGeometry width="50" height="50" relative="1" as="geometry">
            <mxPoint x="170" y="48" as="sourcePoint" />
            <mxPoint x="72.92893218813447" y="67.07106781186553" as="targetPoint" />
          </mxGeometry>
        </mxCell>
        <mxCell id="9BBqrbZMhpgvefR6SsMU-25" value="0.5" style="endArrow=none;html=1;rounded=0;fontFamily=Courier New;fontSize=11;strokeWidth=3;" parent="1" source="9BBqrbZMhpgvefR6SsMU-19" target="D1s_JWRGo4cH3QNwt004-2" edge="1">
          <mxGeometry width="50" height="50" relative="1" as="geometry">
            <mxPoint x="97" y="113" as="sourcePoint" />
            <mxPoint x="87.07106781186553" y="67.07106781186553" as="targetPoint" />
          </mxGeometry>
        </mxCell>
        <mxCell id="9BBqrbZMhpgvefR6SsMU-29" value="0.5" style="endArrow=none;html=1;rounded=0;fontFamily=Courier New;fontSize=11;" parent="1" source="9BBqrbZMhpgvefR6SsMU-21" target="D1s_JWRGo4cH3QNwt004-3" edge="1">
          <mxGeometry width="50" height="50" relative="1" as="geometry">
            <mxPoint x="57" y="120" as="sourcePoint" />
            <mxPoint x="232.92893218813447" y="67.07106781186553" as="targetPoint" />
          </mxGeometry>
        </mxCell>
        <mxCell id="9BBqrbZMhpgvefR6SsMU-30" value="0.5" style="endArrow=none;html=1;rounded=0;fontFamily=Courier New;fontSize=11;dashed=1;dashPattern=1 1;" parent="1" source="9BBqrbZMhpgvefR6SsMU-23" target="D1s_JWRGo4cH3QNwt004-3" edge="1">
          <mxGeometry width="50" height="50" relative="1" as="geometry">
            <mxPoint x="197" y="110" as="sourcePoint" />
            <mxPoint x="247.07106781186553" y="67.07106781186553" as="targetPoint" />
          </mxGeometry>
        </mxCell>
        <mxCell id="9BBqrbZMhpgvefR6SsMU-31" value="+2" style="ellipse;whiteSpace=wrap;html=1;aspect=fixed;fontFamily=Courier New;fontSize=11;strokeColor=#FFFFFF;" parent="1" vertex="1">
          <mxGeometry x="10" y="130" width="20" height="20" as="geometry" />
        </mxCell>
        <mxCell id="9BBqrbZMhpgvefR6SsMU-32" value="+2" style="ellipse;whiteSpace=wrap;html=1;aspect=fixed;fontFamily=Courier New;fontSize=11;strokeColor=#FFFFFF;" parent="1" vertex="1">
          <mxGeometry x="50" y="130" width="20" height="20" as="geometry" />
        </mxCell>
        <mxCell id="9BBqrbZMhpgvefR6SsMU-33" value="" style="endArrow=none;html=1;rounded=0;fontFamily=Courier New;fontSize=11;strokeWidth=3;" parent="1" source="9BBqrbZMhpgvefR6SsMU-31" target="9BBqrbZMhpgvefR6SsMU-16" edge="1">
          <mxGeometry width="50" height="50" relative="1" as="geometry">
            <mxPoint x="-13" y="160" as="sourcePoint" />
            <mxPoint x="93" y="87" as="targetPoint" />
          </mxGeometry>
        </mxCell>
        <mxCell id="9BBqrbZMhpgvefR6SsMU-34" value="" style="endArrow=none;html=1;rounded=0;fontFamily=Courier New;fontSize=11;" parent="1" source="9BBqrbZMhpgvefR6SsMU-32" target="9BBqrbZMhpgvefR6SsMU-16" edge="1">
          <mxGeometry width="50" height="50" relative="1" as="geometry">
            <mxPoint x="127" y="150" as="sourcePoint" />
            <mxPoint x="109" y="85" as="targetPoint" />
          </mxGeometry>
        </mxCell>
        <mxCell id="9BBqrbZMhpgvefR6SsMU-35" value="+1" style="ellipse;whiteSpace=wrap;html=1;aspect=fixed;fontFamily=Courier New;fontSize=11;strokeColor=#FFFFFF;" parent="1" vertex="1">
          <mxGeometry x="90" y="130" width="20" height="20" as="geometry" />
        </mxCell>
        <mxCell id="9BBqrbZMhpgvefR6SsMU-36" value="+2" style="ellipse;whiteSpace=wrap;html=1;aspect=fixed;fontFamily=Courier New;fontSize=11;strokeColor=#FFFFFF;" parent="1" vertex="1">
          <mxGeometry x="130" y="130" width="20" height="20" as="geometry" />
        </mxCell>
        <mxCell id="9BBqrbZMhpgvefR6SsMU-37" value="" style="endArrow=none;html=1;rounded=0;fontFamily=Courier New;fontSize=11;strokeWidth=2;" parent="1" source="9BBqrbZMhpgvefR6SsMU-35" target="9BBqrbZMhpgvefR6SsMU-19" edge="1">
          <mxGeometry width="50" height="50" relative="1" as="geometry">
            <mxPoint x="67" y="160" as="sourcePoint" />
            <mxPoint x="173" y="87" as="targetPoint" />
          </mxGeometry>
        </mxCell>
        <mxCell id="9BBqrbZMhpgvefR6SsMU-38" value="" style="endArrow=none;html=1;rounded=0;fontFamily=Courier New;fontSize=11;strokeWidth=1;" parent="1" source="9BBqrbZMhpgvefR6SsMU-36" target="9BBqrbZMhpgvefR6SsMU-19" edge="1">
          <mxGeometry width="50" height="50" relative="1" as="geometry">
            <mxPoint x="207" y="150" as="sourcePoint" />
            <mxPoint x="189" y="85" as="targetPoint" />
          </mxGeometry>
        </mxCell>
        <mxCell id="9BBqrbZMhpgvefR6SsMU-47" value="&amp;nbsp;0" style="ellipse;whiteSpace=wrap;html=1;aspect=fixed;fontFamily=Courier New;fontSize=11;strokeColor=#FFFFFF;" parent="1" vertex="1">
          <mxGeometry x="170" y="130" width="20" height="20" as="geometry" />
        </mxCell>
        <mxCell id="9BBqrbZMhpgvefR6SsMU-49" value="" style="endArrow=none;html=1;rounded=0;fontFamily=Courier New;fontSize=11;" parent="1" source="9BBqrbZMhpgvefR6SsMU-47" target="9BBqrbZMhpgvefR6SsMU-21" edge="1">
          <mxGeometry width="50" height="50" relative="1" as="geometry">
            <mxPoint x="47" y="160" as="sourcePoint" />
            <mxPoint x="153" y="87" as="targetPoint" />
          </mxGeometry>
        </mxCell>
        <mxCell id="9BBqrbZMhpgvefR6SsMU-51" value="-1" style="ellipse;whiteSpace=wrap;html=1;aspect=fixed;fontFamily=Courier New;fontSize=11;strokeColor=#FFFFFF;" parent="1" vertex="1">
          <mxGeometry x="250" y="130" width="20" height="20" as="geometry" />
        </mxCell>
        <mxCell id="9BBqrbZMhpgvefR6SsMU-52" value="&amp;nbsp;0" style="ellipse;whiteSpace=wrap;html=1;aspect=fixed;fontFamily=Courier New;fontSize=11;strokeColor=#FFFFFF;" parent="1" vertex="1">
          <mxGeometry x="290" y="130" width="20" height="20" as="geometry" />
        </mxCell>
        <mxCell id="9BBqrbZMhpgvefR6SsMU-53" value="" style="endArrow=none;html=1;rounded=0;fontFamily=Courier New;fontSize=11;dashed=1;dashPattern=1 1;" parent="1" source="9BBqrbZMhpgvefR6SsMU-51" target="9BBqrbZMhpgvefR6SsMU-23" edge="1">
          <mxGeometry width="50" height="50" relative="1" as="geometry">
            <mxPoint x="107" y="160" as="sourcePoint" />
            <mxPoint x="213" y="87" as="targetPoint" />
          </mxGeometry>
        </mxCell>
        <mxCell id="9BBqrbZMhpgvefR6SsMU-54" value="" style="endArrow=none;html=1;rounded=0;fontFamily=Courier New;fontSize=11;dashed=1;dashPattern=1 1;" parent="1" source="9BBqrbZMhpgvefR6SsMU-52" target="9BBqrbZMhpgvefR6SsMU-23" edge="1">
          <mxGeometry width="50" height="50" relative="1" as="geometry">
            <mxPoint x="247" y="150" as="sourcePoint" />
            <mxPoint x="229" y="85" as="targetPoint" />
          </mxGeometry>
        </mxCell>
        <mxCell id="9BBqrbZMhpgvefR6SsMU-55" value="+2" style="ellipse;whiteSpace=wrap;html=1;aspect=fixed;fontFamily=Courier New;fontSize=11;strokeColor=#FFFFFF;" parent="1" vertex="1">
          <mxGeometry x="210" y="130" width="20" height="20" as="geometry" />
        </mxCell>
        <mxCell id="9BBqrbZMhpgvefR6SsMU-56" value="" style="endArrow=none;html=1;rounded=0;fontFamily=Courier New;fontSize=11;" parent="1" source="9BBqrbZMhpgvefR6SsMU-55" target="9BBqrbZMhpgvefR6SsMU-21" edge="1">
          <mxGeometry width="50" height="50" relative="1" as="geometry">
            <mxPoint x="207" y="150" as="sourcePoint" />
            <mxPoint x="189" y="85" as="targetPoint" />
          </mxGeometry>
        </mxCell>
        <mxCell id="D1s_JWRGo4cH3QNwt004-2" value="+1.5" style="ellipse;whiteSpace=wrap;html=1;fillColor=#f5f5f5;fontColor=#333333;strokeColor=#666666;fontFamily=Courier New;" parent="1" vertex="1">
          <mxGeometry x="60" y="50" width="40" height="20" as="geometry" />
        </mxCell>
        <mxCell id="D1s_JWRGo4cH3QNwt004-3" value="+0.0" style="ellipse;whiteSpace=wrap;html=1;fillColor=#f5f5f5;fontColor=#333333;strokeColor=#666666;fontFamily=Courier New;" parent="1" vertex="1">
          <mxGeometry x="220" y="50" width="40" height="20" as="geometry" />
        </mxCell>
        <mxCell id="D1s_JWRGo4cH3QNwt004-4" value="+1.5" style="ellipse;whiteSpace=wrap;html=1;fillColor=#dae8fc;strokeColor=#6c8ebf;fontFamily=Courier New;" parent="1" vertex="1">
          <mxGeometry x="140" y="10" width="40" height="20" as="geometry" />
        </mxCell>
      </root>
    </mxGraphModel>
  </diagram>
</mxfile>
